HIERARCHY
ROOT Hips
{
	OFFSET 0.053599 88.859886 3.107447
	CHANNELS 6 Xposition Yposition Zposition Zrotation Yrotation Xrotation 
	JOINT Spine
	{
		OFFSET -0.000000 8.814246 -2.080107
		CHANNELS 3 Zrotation Yrotation Xrotation
		JOINT Spine1
		{
			OFFSET 0.000000 8.844141 0.000000
			CHANNELS 3 Zrotation Yrotation Xrotation
			JOINT Spine2
			{
				OFFSET -0.000000 11.682268 0.000000
				CHANNELS 3 Zrotation Yrotation Xrotation
				JOINT Spine3
				{
					OFFSET 0.000000 11.746700 0.000000
					CHANNELS 3 Zrotation Yrotation Xrotation
					JOINT Neck
					{
						OFFSET -0.000000 17.658264 -0.000000
						CHANNELS 3 Zrotation Yrotation Xrotation
						JOINT Neck1
						{
							OFFSET -0.000000 5.101515 -0.000000
							CHANNELS 3 Zrotation Yrotation Xrotation
							JOINT Head
							{
								OFFSET 0.000000 5.101515 0.000000
								CHANNELS 3 Zrotation Yrotation Xrotation
								JOINT HeadEnd
								{
									OFFSET 0.000000 11.655085 0.000000
									CHANNELS 3 Zrotation Yrotation Xrotation
									End Site
									{
										OFFSET 0.000000 0.000000 0.000000
									}
								}
							}
						}
					}
					JOINT RightShoulder
					{
						OFFSET -2.625389 11.175210 0.000000
						CHANNELS 3 Zrotation Yrotation Xrotation
						JOINT RightArm
						{
							OFFSET -0.000000 10.434715 -0.000000
							CHANNELS 3 Zrotation Yrotation Xrotation
							JOINT RightForeArm
							{
								OFFSET -0.000000 29.628420 0.000000
								CHANNELS 3 Zrotation Yrotation Xrotation
								JOINT RightHand
								{
									OFFSET -0.000000 22.857611 0.000000
									CHANNELS 3 Zrotation Yrotation Xrotation
									JOINT RightHandThumb1
									{
										OFFSET -2.867323 3.959563 2.944291
										CHANNELS 3 Zrotation Yrotation Xrotation
										JOINT RightHandThumb2
										{
											OFFSET 0.000000 3.350399 0.000000
											CHANNELS 3 Zrotation Yrotation Xrotation
											JOINT RightHandThumb3
											{
												OFFSET 0.000000 3.756509 -0.000000
												CHANNELS 3 Zrotation Yrotation Xrotation
												JOINT RightHandThumb4
												{
													OFFSET 0.000000 3.147345 0.000000
													CHANNELS 3 Zrotation Yrotation Xrotation
													End Site
													{
														OFFSET 0.000000 0.000000 0.000000
													}
												}
											}
										}
									}
									JOINT RightHandIndex1
									{
										OFFSET -0.086752 10.030893 2.345280
										CHANNELS 3 Zrotation Yrotation Xrotation
										JOINT RightHandIndex2
										{
											OFFSET -0.000000 4.061090 0.000000
											CHANNELS 3 Zrotation Yrotation Xrotation
											JOINT RightHandIndex3
											{
												OFFSET -0.000000 3.248873 0.000000
												CHANNELS 3 Zrotation Yrotation Xrotation
												JOINT RightHandIndex4
												{
													OFFSET 0.000000 2.639709 -0.000000
													CHANNELS 3 Zrotation Yrotation Xrotation
													End Site
													{
														OFFSET 0.000000 0.000000 0.000000
													}
												}
											}
										}
									}
									JOINT RightHandMiddle1
									{
										OFFSET 0.104102 9.502952 0.006768
										CHANNELS 3 Zrotation Yrotation Xrotation
										JOINT RightHandMiddle2
										{
											OFFSET 0.000000 4.568727 0.000000
											CHANNELS 3 Zrotation Yrotation Xrotation
											JOINT RightHandMiddle3
											{
												OFFSET 0.000000 3.654981 -0.000000
												CHANNELS 3 Zrotation Yrotation Xrotation
												JOINT RightHandMiddle4
												{
													OFFSET -0.000000 2.741236 -0.000000
													CHANNELS 3 Zrotation Yrotation Xrotation
													End Site
													{
														OFFSET 0.000000 0.000000 0.000000
													}
												}
											}
										}
									}
									JOINT RightHandRing1
									{
										OFFSET 0.086752 8.921708 -2.267442
										CHANNELS 3 Zrotation Yrotation Xrotation
										JOINT RightHandRing2
										{
											OFFSET -0.000000 4.061090 0.000000
											CHANNELS 3 Zrotation Yrotation Xrotation
											JOINT RightHandRing3
											{
												OFFSET 0.000000 3.654981 -0.000000
												CHANNELS 3 Zrotation Yrotation Xrotation
												JOINT RightHandRing4
												{
													OFFSET 0.000000 2.741236 -0.000000
													CHANNELS 3 Zrotation Yrotation Xrotation
													End Site
													{
														OFFSET 0.000000 0.000000 0.000000
													}
												}
											}
										}
									}
									JOINT RightHandPinky1
									{
										OFFSET -0.173504 7.976997 -4.467199
										CHANNELS 3 Zrotation Yrotation Xrotation
										JOINT RightHandPinky2
										{
											OFFSET 0.000000 3.350399 -0.000000
											CHANNELS 3 Zrotation Yrotation Xrotation
											JOINT RightHandPinky3
											{
												OFFSET -0.000000 2.842763 0.000000
												CHANNELS 3 Zrotation Yrotation Xrotation
												JOINT RightHandPinky4
												{
													OFFSET -0.000000 2.639709 0.000000
													CHANNELS 3 Zrotation Yrotation Xrotation
													End Site
													{
														OFFSET 0.000000 0.000000 0.000000
													}
												}
											}
										}
									}
									JOINT RightForeArmEnd
									{
										OFFSET 0.000000 0.000000 0.000000
										CHANNELS 3 Zrotation Yrotation Xrotation
										End Site
										{
											OFFSET 0.000000 0.000000 0.000000
										}
									}
								}
								JOINT RightArmEnd
								{
									OFFSET 0.000000 0.000000 0.000000
									CHANNELS 3 Zrotation Yrotation Xrotation
									End Site
									{
										OFFSET 0.000000 0.000000 0.000000
									}
								}
							}
						}
					}
					JOINT LeftShoulder
					{
						OFFSET 2.625389 11.175210 0.000000
						CHANNELS 3 Zrotation Yrotation Xrotation
						JOINT LeftArm
						{
							OFFSET 0.000000 10.813635 -0.000000
							CHANNELS 3 Zrotation Yrotation Xrotation
							JOINT LeftForeArm
							{
								OFFSET 0.000000 28.724781 0.000000
								CHANNELS 3 Zrotation Yrotation Xrotation
								JOINT LeftHand
								{
									OFFSET 0.644384 25.716167 -0.328871
									CHANNELS 3 Zrotation Yrotation Xrotation
									JOINT LeftHandThumb1
									{
										OFFSET 2.867323 3.959563 2.944291
										CHANNELS 3 Zrotation Yrotation Xrotation
										JOINT LeftHandThumb2
										{
											OFFSET 0.000000 3.350399 0.000000
											CHANNELS 3 Zrotation Yrotation Xrotation
											JOINT LeftHandThumb3
											{
												OFFSET -0.000000 3.756509 0.000000
												CHANNELS 3 Zrotation Yrotation Xrotation
												JOINT LeftHandThumb4
												{
													OFFSET -0.000000 3.100000 0.000000
													CHANNELS 3 Zrotation Yrotation Xrotation
													End Site
													{
														OFFSET 0.000000 0.000000 0.000000
													}
												}
											}
										}
									}
									JOINT LeftHandIndex1
									{
										OFFSET 0.086752 10.030893 2.345280
										CHANNELS 3 Zrotation Yrotation Xrotation
										JOINT LeftHandIndex2
										{
											OFFSET -0.000000 4.061090 -0.000000
											CHANNELS 3 Zrotation Yrotation Xrotation
											JOINT LeftHandIndex3
											{
												OFFSET 0.000000 3.248873 -0.000000
												CHANNELS 3 Zrotation Yrotation Xrotation
												JOINT LeftHandIndex4
												{
													OFFSET 0.000000 2.639709 -0.000000
													CHANNELS 3 Zrotation Yrotation Xrotation
													End Site
													{
														OFFSET 0.000000 0.000000 0.000000
													}
												}
											}
										}
									}
									JOINT LeftHandMiddle1
									{
										OFFSET -0.104102 9.502952 0.006768
										CHANNELS 3 Zrotation Yrotation Xrotation
										JOINT LeftHandMiddle2
										{
											OFFSET -0.000000 4.568727 -0.000000
											CHANNELS 3 Zrotation Yrotation Xrotation
											JOINT LeftHandMiddle3
											{
												OFFSET 0.000000 3.654981 0.000000
												CHANNELS 3 Zrotation Yrotation Xrotation
												JOINT LeftHandMiddle4
												{
													OFFSET 0.000000 2.741236 -0.000000
													CHANNELS 3 Zrotation Yrotation Xrotation
													End Site
													{
														OFFSET 0.000000 0.000000 0.000000
													}
												}
											}
										}
									}
									JOINT LeftHandRing1
									{
										OFFSET -0.086752 8.921708 -2.267442
										CHANNELS 3 Zrotation Yrotation Xrotation
										JOINT LeftHandRing2
										{
											OFFSET 0.000000 4.061090 0.000000
											CHANNELS 3 Zrotation Yrotation Xrotation
											JOINT LeftHandRing3
											{
												OFFSET 0.000000 3.654981 0.000000
												CHANNELS 3 Zrotation Yrotation Xrotation
												JOINT LeftHandRing4
												{
													OFFSET 0.000000 2.741236 0.000000
													CHANNELS 3 Zrotation Yrotation Xrotation
													End Site
													{
														OFFSET 0.000000 0.000000 0.000000
													}
												}
											}
										}
									}
									JOINT LeftHandPinky1
									{
										OFFSET 0.173504 7.976997 -4.467199
										CHANNELS 3 Zrotation Yrotation Xrotation
										JOINT LeftHandPinky2
										{
											OFFSET -0.000000 3.350399 -0.000000
											CHANNELS 3 Zrotation Yrotation Xrotation
											JOINT LeftHandPinky3
											{
												OFFSET 0.000000 2.842763 0.000000
												CHANNELS 3 Zrotation Yrotation Xrotation
												JOINT LeftHandPinky4
												{
													OFFSET -0.000000 2.639709 -0.000000
													CHANNELS 3 Zrotation Yrotation Xrotation
													End Site
													{
														OFFSET 0.000000 0.000000 0.000000
													}
												}
											}
										}
									}
									JOINT LeftForeArmEnd
									{
										OFFSET 0.000000 0.000000 0.000000
										CHANNELS 3 Zrotation Yrotation Xrotation
										End Site
										{
											OFFSET 0.000000 0.000000 0.000000
										}
									}
								}
								JOINT LeftArmEnd
								{
									OFFSET 0.000000 0.000000 0.000000
									CHANNELS 3 Zrotation Yrotation Xrotation
									End Site
									{
										OFFSET 0.000000 0.000000 0.000000
									}
								}
							}
						}
					}
				}
			}
		}
	}
	JOINT RightUpLeg
	{
		OFFSET -11.289943 0.000000 0.000000
		CHANNELS 3 Zrotation Yrotation Xrotation
		JOINT RightLeg
		{
			OFFSET 0.000000 -38.200325 0.000000
			CHANNELS 3 Zrotation Yrotation Xrotation
			JOINT RightFoot
			{
				OFFSET -0.000000 -39.900856 -0.000000
				CHANNELS 3 Zrotation Yrotation Xrotation
				JOINT RightToeBase
				{
					OFFSET 0.000000 0.000000 15.261641
					CHANNELS 3 Zrotation Yrotation Xrotation
					JOINT RightToeBaseEnd
					{
						OFFSET 0.000000 0.000000 7.370709
						CHANNELS 3 Zrotation Yrotation Xrotation
						End Site
						{
							OFFSET 0.000000 0.000000 0.000000
						}
					}
				}
				JOINT RightLegEnd
				{
					OFFSET 0.000000 0.000000 0.000000
					CHANNELS 3 Zrotation Yrotation Xrotation
					End Site
					{
						OFFSET 0.000000 0.000000 0.000000
					}
				}
			}
			JOINT RightUpLegEnd
			{
				OFFSET 0.000000 0.000000 0.000000
				CHANNELS 3 Zrotation Yrotation Xrotation
				End Site
				{
					OFFSET 0.000000 0.000000 0.000000
				}
			}
		}
	}
	JOINT LeftUpLeg
	{
		OFFSET 11.315661 -0.000000 0.000000
		CHANNELS 3 Zrotation Yrotation Xrotation
		JOINT LeftLeg
		{
			OFFSET -0.000000 -38.200325 -0.000000
			CHANNELS 3 Zrotation Yrotation Xrotation
			JOINT LeftFoot
			{
				OFFSET 0.000000 -39.900856 -0.000000
				CHANNELS 3 Zrotation Yrotation Xrotation
				JOINT LeftToeBase
				{
					OFFSET -0.000000 -0.000000 15.261641
					CHANNELS 3 Zrotation Yrotation Xrotation
					JOINT LeftToeBaseEnd
					{
						OFFSET 0.000000 -0.000000 7.539996
						CHANNELS 3 Zrotation Yrotation Xrotation
						End Site
						{
							OFFSET 0.000000 0.000000 0.000000
						}
					}
				}
				JOINT LeftLegEnd
				{
					OFFSET 0.000000 0.000000 0.000000
					CHANNELS 3 Zrotation Yrotation Xrotation
					End Site
					{
						OFFSET 0.000000 0.000000 0.000000
					}
				}
			}
			JOINT LeftUpLegEnd
			{
				OFFSET 0.000000 0.000000 0.000000
				CHANNELS 3 Zrotation Yrotation Xrotation
				End Site
				{
					OFFSET 0.000000 0.000000 0.000000
				}
			}
		}
	}
}
MOTION
Frames: 5
Frame Time: 0.016667
0.053599 88.859886 3.107447 0.490481 0.055862 -6.497332 0.023754 -0.000539 5.886370 -1.012250 0.067046 0.861970 0.478071 -2.416792 3.829567 0.155030 -0.780500 1.929224 2.330515 0.848112 5.016849 0.371683 2.117863 -3.221864 -0.714533 -0.852149 -18.222401 0.000000 0.000000 0.000000 92.418694 -0.394880 9.707912 65.456573 -33.431271 5.091406 -0.130291 12.440493 22.353239 6.882370 13.743960 -6.458578 19.861429 30.097643 62.040974 -8.462701 -12.164348 -20.450144 -6.325801 -8.139122 -14.332924 0.000000 0.000000 0.000000 12.621688 -10.712396 0.231899 8.905269 0.376633 1.323778 8.902945 -0.111869 1.243825 0.000000 0.000000 0.000000 11.194713 -5.446730 -1.239449 7.889823 0.455857 0.481039 7.889222 -0.037052 0.412494 0.000000 0.000000 0.000000 10.912717 2.564455 -1.535874 7.825817 -0.947299 -0.611652 7.824722 0.070320 -0.477096 0.000000 0.000000 0.000000 9.631022 11.185607 -2.805182 7.161172 -1.900893 -1.652070 7.157181 0.085565 -1.400512 0.000000 0.000000 0.000000 0.000000 0.000000 0.000000 0.000000 0.000000 0.000000 -90.370071 0.051974 5.208683 -71.842018 19.306828 -7.574249 -0.664994 -8.642401 40.885647 -0.139946 -25.486511 -15.477552 -20.250540 -29.996990 61.691063 8.807010 12.918287 -21.553112 6.618044 8.635277 -15.110494 0.000000 0.000000 0.000000 -16.168392 -5.636370 -1.918335 -11.569428 0.324957 -1.715407 -11.569072 -0.164917 -1.615128 0.000000 0.000000 0.000000 -15.643335 -0.758781 -1.694552 -11.169063 0.440303 -0.678956 -11.168735 -0.058746 -0.582722 0.000000 0.000000 0.000000 -18.003109 7.607869 -1.025503 -12.703986 -0.874371 0.992852 -12.702737 0.099213 0.772902 0.000000 0.000000 0.000000 -18.852142 16.262062 -0.245862 -13.102126 -1.657223 2.980032 -13.096694 0.281077 2.526406 0.000000 0.000000 0.000000 0.000000 0.000000 0.000000 0.000000 0.000000 0.000000 -1.045058 -10.518975 11.869204 -0.078405 -0.635030 3.758801 -2.197730 -7.901679 18.681496 -0.890004 0.828132 -18.870453 0.000000 0.000000 0.000000 0.000000 0.000000 0.000000 0.000000 0.000000 0.000000 -1.784023 -6.543907 7.474547 0.053202 0.398207 7.545935 3.843466 -1.785134 17.966772 0.194973 -0.390531 -20.817129 0.000000 0.000000 0.000000 0.000000 0.000000 0.000000 0.000000 0.000000 0.000000 
0.116739 88.914513 2.910265 -0.271995 -0.301352 -7.325406 1.301824 -0.183409 6.627697 -0.958615 0.116673 2.704983 0.744759 -1.608132 1.540549 -0.892825 -0.175355 3.087647 1.300368 2.295427 3.171695 0.345061 2.938179 -3.798197 -1.043282 -0.585243 -18.438852 0.000000 0.000000 0.000000 92.984840 -0.469220 9.596805 65.002068 -32.194515 4.059257 -0.129771 13.051149 23.129414 6.753024 13.177753 -6.907185 19.870171 30.099897 62.086445 -8.414932 -12.065684 -20.412302 -6.281542 -8.084841 -14.256051 0.000000 0.000000 0.000000 12.044461 -10.750385 -0.328346 9.042175 0.329244 1.337535 8.828866 -0.111362 1.272494 0.000000 0.000000 0.000000 10.866004 -5.355393 -1.120129 7.696419 0.420116 0.521949 8.068619 -0.054289 0.446384 0.000000 0.000000 0.000000 10.298338 2.578366 -0.835263 7.497380 -0.885834 -0.856980 7.535495 0.069777 -0.629897 0.000000 0.000000 0.000000 9.576539 11.057182 -1.749697 7.175455 -1.640360 -2.444881 6.760271 0.284404 -2.061111 0.000000 0.000000 0.000000 0.000000 0.000000 0.000000 0.000000 0.000000 0.000000 -89.902077 0.133227 5.999229 -71.693871 19.609310 -6.562213 -1.229882 -9.047163 40.491211 2.077513 -23.132656 -15.957155 -20.238018 -29.971510 61.619560 8.865220 12.934000 -21.653156 6.638850 8.657260 -15.135528 0.000000 0.000000 0.000000 -17.225458 -5.488746 -0.140254 -11.008751 0.287348 -1.414864 -11.121058 -0.174024 -1.305071 0.000000 0.000000 0.000000 -16.566681 -0.505560 -0.920191 -10.888910 0.405503 -0.596942 -10.812017 -0.068684 -0.480530 0.000000 0.000000 0.000000 -18.693054 7.530884 -0.749255 -12.388339 -0.866079 0.855704 -12.364276 0.086625 0.665540 0.000000 0.000000 0.000000 -19.894333 15.946392 -1.153873 -12.953510 -1.541548 2.662420 -12.805524 0.351322 2.261847 0.000000 0.000000 0.000000 0.000000 0.000000 0.000000 0.000000 0.000000 0.000000 0.124869 -9.190470 11.000557 -0.048482 -0.636847 6.182252 -2.896612 -9.005163 17.695623 -0.797909 0.747471 -19.036123 0.000000 0.000000 0.000000 0.000000 0.000000 0.000000 0.000000 0.000000 0.000000 -1.540625 -6.321060 7.180944 0.058037 0.368528 8.536216 3.732543 -0.533621 16.974276 0.391600 -0.471074 -20.503145 0.000000 0.000000 0.000000 0.000000 0.000000 0.000000 0.000000 0.000000 0.000000 
0.125654 88.898132 2.897430 -0.292489 -0.355410 -7.389415 1.300572 -0.170042 6.655849 -0.890410 0.102292 2.685871 0.755869 -1.584510 1.621181 -0.884863 -0.155178 3.125535 1.238244 2.206785 3.114461 0.332763 2.848685 -3.783239 -1.054587 -0.624475 -18.407543 0.000000 0.000000 0.000000 92.871422 -0.476685 9.529179 64.999214 -32.500793 4.086518 -0.083860 13.065110 23.150923 6.534381 12.782537 -6.913898 19.854012 30.103151 62.089306 -8.411337 -12.048748 -20.390171 -6.280673 -8.069201 -14.237623 0.000000 0.000000 0.000000 12.044407 -10.750689 -0.391441 9.086474 0.331156 1.324788 8.888967 -0.106863 1.259146 0.000000 0.000000 0.000000 10.896582 -5.352297 -1.136959 7.753060 0.419131 0.516021 8.128843 -0.053705 0.442506 0.000000 0.000000 0.000000 10.343612 2.558938 -0.814028 7.597706 -0.884446 -0.850479 7.628648 0.067925 -0.623047 0.000000 0.000000 0.000000 9.567944 11.028818 -1.657231 7.197110 -1.640826 -2.438618 6.801471 0.279893 -2.044268 0.000000 0.000000 0.000000 0.000000 0.000000 0.000000 0.000000 0.000000 0.000000 -89.846329 0.138795 6.023426 -71.863976 19.780140 -6.628087 -1.230579 -9.079058 40.602249 2.356739 -22.818289 -15.983768 -20.227863 -29.977718 61.630249 8.846911 12.914314 -21.621080 6.626178 8.639041 -15.109822 0.000000 0.000000 0.000000 -17.131742 -5.523627 -0.237380 -11.098608 0.286215 -1.410781 -11.186478 -0.172202 -1.303031 0.000000 0.000000 0.000000 -16.503845 -0.527471 -0.982896 -10.977420 0.404238 -0.598776 -10.901811 -0.069830 -0.483281 0.000000 0.000000 0.000000 -18.682539 7.524961 -0.819441 -12.486709 -0.864174 0.859786 -12.441395 0.087230 0.669152 0.000000 0.000000 0.000000 -19.877808 15.948248 -1.229176 -13.004458 -1.539627 2.655799 -12.830680 0.350090 2.267993 0.000000 0.000000 0.000000 0.000000 0.000000 0.000000 0.000000 0.000000 0.000000 0.133626 -9.131027 11.099325 -0.048359 -0.638209 6.089165 -2.849794 -9.017528 17.723478 -0.805825 0.744139 -19.027336 0.000000 0.000000 0.000000 0.000000 0.000000 0.000000 0.000000 0.000000 0.000000 -1.514222 -6.246743 7.163089 0.056956 0.357009 8.625731 3.743964 -0.500164 16.968109 0.372870 -0.471493 -20.522575 0.000000 0.000000 0.000000 0.000000 0.000000 0.000000 0.000000 0.000000 0.000000 
0.132098 88.889084 2.900238 -0.304500 -0.403398 -7.470687 1.304054 -0.160060 6.664213 -0.863994 0.101512 2.677379 0.772475 -1.575309 1.669989 -0.883248 -0.129779 3.185741 1.178553 2.166410 3.092391 0.343209 2.800642 -3.744610 -1.055079 -0.645352 -18.392052 0.000000 0.000000 0.000000 92.777046 -0.484183 9.483903 65.049942 -32.517517 4.011384 -0.070875 13.064357 23.265627 6.502729 12.428885 -6.952824 19.857086 30.103695 62.082531 -8.415153 -12.067068 -20.412861 -6.286226 -8.074413 -14.251988 0.000000 0.000000 0.000000 12.076351 -10.771141 -0.418582 9.175568 0.334965 1.306658 8.985753 -0.102341 1.240897 0.000000 0.000000 0.000000 10.944784 -5.360578 -1.138059 7.844457 0.420195 0.507515 8.215578 -0.052094 0.435673 0.000000 0.000000 0.000000 10.391143 2.554744 -0.780670 7.697709 -0.885001 -0.842946 7.718765 0.066354 -0.616137 0.000000 0.000000 0.000000 9.569957 11.030622 -1.557022 7.233436 -1.642405 -2.435047 6.850870 0.278069 -2.037913 0.000000 0.000000 0.000000 0.000000 0.000000 0.000000 0.000000 0.000000 0.000000 -89.815819 0.149594 6.021620 -72.010246 19.836298 -6.696380 -1.196090 -9.099094 40.652695 2.470508 -22.559027 -15.890716 -20.233377 -29.980608 61.631130 8.841536 12.910805 -21.626865 6.623448 8.638202 -15.108485 0.000000 0.000000 0.000000 -17.116798 -5.552772 -0.237347 -11.156929 0.287369 -1.399104 -11.223257 -0.170073 -1.294378 0.000000 0.000000 0.000000 -16.501377 -0.541231 -0.970155 -11.036015 0.404210 -0.595302 -10.970241 -0.070099 -0.480567 0.000000 0.000000 0.000000 -18.732738 7.528086 -0.793253 -12.553094 -0.864247 0.862492 -12.504603 0.086817 0.670197 0.000000 0.000000 0.000000 -19.952990 15.953132 -1.220080 -13.060512 -1.537687 2.665937 -12.862147 0.353596 2.282989 0.000000 0.000000 0.000000 0.000000 0.000000 0.000000 0.000000 0.000000 0.000000 0.133116 -9.068475 11.215866 -0.047815 -0.635177 6.049069 -2.819096 -9.021578 17.753433 -0.810818 0.743029 -19.027237 0.000000 0.000000 0.000000 0.000000 0.000000 0.000000 0.000000 0.000000 0.000000 -1.501422 -6.199445 7.165804 0.056621 0.354185 8.727552 3.756303 -0.468913 16.948795 0.364740 -0.473578 -20.526920 0.000000 0.000000 0.000000 0.000000 0.000000 0.000000 0.000000 0.000000 0.000000 
0.140906 88.881477 2.904590 -0.318573 -0.448907 -7.545568 1.314943 -0.153698 6.666024 -0.845388 0.100536 2.661644 0.782509 -1.558116 1.722206 -0.881230 -0.107731 3.234657 1.086587 2.174459 3.117131 0.355648 2.782871 -3.691354 -1.052826 -0.659512 -18.398401 0.000000 0.000000 0.000000 92.719276 -0.484439 9.465134 65.160080 -32.436394 3.900222 -0.068742 13.120157 23.349096 6.488910 12.151891 -6.933354 19.871620 30.101629 62.066002 -8.426439 -12.106345 -20.462372 -6.299345 -8.095906 -14.284808 0.000000 0.000000 0.000000 12.169902 -10.804138 -0.415373 9.275182 0.343861 1.278178 9.090755 -0.092797 1.214722 0.000000 0.000000 0.000000 11.048891 -5.381843 -1.115521 7.944307 0.424168 0.494267 8.308536 -0.048343 0.425121 0.000000 0.000000 0.000000 10.495425 2.543403 -0.718953 7.799100 -0.890089 -0.826975 7.808722 0.061909 -0.603295 0.000000 0.000000 0.000000 9.622066 11.032510 -1.433839 7.284572 -1.656632 -2.401692 6.908319 0.266282 -2.008883 0.000000 0.000000 0.000000 0.000000 0.000000 0.000000 0.000000 0.000000 0.000000 -89.803932 0.148014 6.018931 -72.085396 19.855764 -6.728371 -1.169663 -9.119223 40.705044 2.450949 -22.423906 -15.759580 -20.236124 -29.981434 61.631138 8.845244 12.903328 -21.630226 6.622946 8.633121 -15.108401 0.000000 0.000000 0.000000 -17.110909 -5.572032 -0.217299 -11.168065 0.296675 -1.363509 -11.220061 -0.160043 -1.263688 0.000000 0.000000 0.000000 -16.509773 -0.548598 -0.936333 -11.042504 0.407841 -0.581043 -10.991562 -0.067224 -0.468849 0.000000 0.000000 0.000000 -18.779015 7.526995 -0.736674 -12.575201 -0.869493 0.850185 -12.520768 0.082500 0.660288 0.000000 0.000000 0.000000 -20.036718 15.948483 -1.177465 -13.086038 -1.550527 2.632824 -12.865988 0.343862 2.260961 0.000000 0.000000 0.000000 0.000000 0.000000 0.000000 0.000000 0.000000 0.000000 0.131578 -9.007386 11.318446 -0.047521 -0.631769 6.041301 -2.797607 -9.000398 17.769180 -0.812611 0.739601 -19.024563 0.000000 0.000000 0.000000 0.000000 0.000000 0.000000 0.000000 0.000000 0.000000 -1.499949 -6.173616 7.175992 0.056237 0.350395 8.818209 3.765386 -0.423745 16.934811 0.360678 -0.474487 -20.527054 0.000000 0.000000 0.000000 0.000000 0.000000 0.000000 0.000000 0.000000 0.000000 
